<svg width="48" height="49" viewBox="0 0 48 49" fill="none" xmlns="http://www.w3.org/2000/svg">
<rect x="0.5" y="1.40472" width="47" height="47" rx="9.5" fill="#353542"/>
<rect x="0.5" y="1.40472" width="47" height="47" rx="9.5" stroke="url(#paint0_linear_4204_553)"/>
<path fill-rule="evenodd" clip-rule="evenodd" d="M21.0189 15.726H34.8774C35.4297 15.726 35.8774 16.1737 35.8774 16.726C35.8774 17.2782 35.4297 17.726 34.8774 17.726H20.9797C20.6219 19.2527 19.5334 20.3631 18.2462 20.3631C16.959 20.3631 15.8705 19.2527 15.5127 17.726H13.1224C12.5701 17.726 12.1224 17.2782 12.1224 16.726C12.1224 16.1737 12.5701 15.726 13.1224 15.726H15.4735C15.7842 14.1052 16.9077 12.9047 18.2462 12.9047C19.5846 12.9047 20.7082 14.1052 21.0189 15.726ZM13.1224 24.2498C12.5701 24.2498 12.1224 24.6975 12.1224 25.2498C12.1224 25.8021 12.5701 26.2498 13.1224 26.2498H24.6464C25.1051 27.5097 26.0893 28.3808 27.2294 28.3808C28.3696 28.3808 29.3538 27.5097 29.8125 26.2498H34.8774C35.4297 26.2498 35.8774 25.8021 35.8774 25.2498C35.8774 24.6975 35.4297 24.2498 34.8774 24.2498H30.0711C29.9175 22.3792 28.7038 20.9224 27.2294 20.9224C25.755 20.9224 24.5414 22.3792 24.3878 24.2498H13.1224ZM11.9391 33.1755C11.9391 32.6232 12.3868 32.1755 12.9391 32.1755H20.392C20.7269 30.6015 21.8331 29.4463 23.1461 29.4463C24.4591 29.4463 25.5653 30.6015 25.9002 32.1755H35.061C35.6132 32.1755 36.061 32.6232 36.061 33.1755C36.061 33.7278 35.6132 34.1755 35.061 34.1755H25.9002C25.5652 35.7495 24.4591 36.9047 23.1461 36.9047C21.8332 36.9047 20.727 35.7495 20.392 34.1755H12.9391C12.3868 34.1755 11.9391 33.7278 11.9391 33.1755Z" fill="#84D52C"/>
<path fill-rule="evenodd" clip-rule="evenodd" d="M21.0189 15.726H34.8774C35.4297 15.726 35.8774 16.1737 35.8774 16.726C35.8774 17.2782 35.4297 17.726 34.8774 17.726H20.9797C20.6219 19.2527 19.5334 20.3631 18.2462 20.3631C16.959 20.3631 15.8705 19.2527 15.5127 17.726H13.1224C12.5701 17.726 12.1224 17.2782 12.1224 16.726C12.1224 16.1737 12.5701 15.726 13.1224 15.726H15.4735C15.7842 14.1052 16.9077 12.9047 18.2462 12.9047C19.5846 12.9047 20.7082 14.1052 21.0189 15.726ZM13.1224 24.2498C12.5701 24.2498 12.1224 24.6975 12.1224 25.2498C12.1224 25.8021 12.5701 26.2498 13.1224 26.2498H24.6464C25.1051 27.5097 26.0893 28.3808 27.2294 28.3808C28.3696 28.3808 29.3538 27.5097 29.8125 26.2498H34.8774C35.4297 26.2498 35.8774 25.8021 35.8774 25.2498C35.8774 24.6975 35.4297 24.2498 34.8774 24.2498H30.0711C29.9175 22.3792 28.7038 20.9224 27.2294 20.9224C25.755 20.9224 24.5414 22.3792 24.3878 24.2498H13.1224ZM11.9391 33.1755C11.9391 32.6232 12.3868 32.1755 12.9391 32.1755H20.392C20.7269 30.6015 21.8331 29.4463 23.1461 29.4463C24.4591 29.4463 25.5653 30.6015 25.9002 32.1755H35.061C35.6132 32.1755 36.061 32.6232 36.061 33.1755C36.061 33.7278 35.6132 34.1755 35.061 34.1755H25.9002C25.5652 35.7495 24.4591 36.9047 23.1461 36.9047C21.8332 36.9047 20.727 35.7495 20.392 34.1755H12.9391C12.3868 34.1755 11.9391 33.7278 11.9391 33.1755Z" fill="url(#paint1_linear_4204_553)" fill-opacity="0.2"/>
<defs>
<linearGradient id="paint0_linear_4204_553" x1="48" y1="2.1701" x2="57.2023" y2="95.3461" gradientUnits="userSpaceOnUse">
<stop stop-color="#84D52C" stop-opacity="0.36"/>
<stop offset="1" stop-color="#171722" stop-opacity="0"/>
</linearGradient>
<linearGradient id="paint1_linear_4204_553" x1="36.061" y1="12.9047" x2="12.0677" y2="14.3561" gradientUnits="userSpaceOnUse">
<stop stop-color="#6BAB2B"/>
<stop offset="1" stop-color="#84D52C" stop-opacity="0"/>
</linearGradient>
</defs>
</svg>
